# xmcd
#
# Track frame offsets:
#	150
#	12639
#	28928
#	43963
#	58706
#	72723
#	87824
#	106007
#	118624
#
# Disc length: 1792 seconds
# Revision: 0
# Processed by: cddbd v1.5.2PL0 Copyright (c) Steve Scherf et al.
# Submitted via: dBpowerAMP V12.0
#
DISCID=7e06fe09
DTITLE=Clayton Claxton - It Still Don't Sound Like Merle
DYEAR=2012
DGENRE=Country
TTITLE0=It Still Don't Sound Like Merle
TTITLE1=I Can't Believe How Gone She Is
TTITLE2=Zachary Road
TTITLE3=Guitar in Heaven
TTITLE4=Hard Life
TTITLE5=Cowboy's Love
TTITLE6=Broken Heart Surgery (Whiskey IV)
TTITLE7=Circle Driveway
TTITLE8=Shoulda Been Me
EXTD=
EXTT0=
EXTT1=
EXTT2=
EXTT3=
EXTT4=
EXTT5=
EXTT6=
EXTT7=
EXTT8=
PLAYORDER=
